<svg width="110" height="65" viewBox="0 0 110 65" fill="none" xmlns="http://www.w3.org/2000/svg">
<g filter="url(#filter0_b_28_56)">
<path d="M0 25C0 11.1929 11.1929 0 25 0H85C98.8071 0 110 11.1929 110 25V40C110 53.8071 98.8071 65 85 65H25C11.1929 65 0 53.8071 0 40V25Z" fill="white" fill-opacity="0.2"/>
<path d="M0.5 25C0.5 11.469 11.469 0.5 25 0.5H85C98.531 0.5 109.5 11.469 109.5 25V40C109.5 53.531 98.531 64.5 85 64.5H25C11.469 64.5 0.5 53.531 0.5 40V25Z" stroke="white" stroke-opacity="0.4"/>
</g>
<defs>
<filter id="filter0_b_28_56" x="-25.8" y="-25.8" width="161.6" height="116.6" filterUnits="userSpaceOnUse" color-interpolation-filters="sRGB">
<feFlood flood-opacity="0" result="BackgroundImageFix"/>
<feGaussianBlur in="BackgroundImageFix" stdDeviation="12.9"/>
<feComposite in2="SourceAlpha" operator="in" result="effect1_backgroundBlur_28_56"/>
<feBlend mode="normal" in="SourceGraphic" in2="effect1_backgroundBlur_28_56" result="shape"/>
</filter>
</defs>
</svg>
